<svg width="67" height="93" viewBox="0 0 67 93" fill="none" xmlns="http://www.w3.org/2000/svg">
<path d="M13.9688 0.59375V13.7812H17.2656V17.1425L7.375 27.4613V83.0156H5.72656C3.00112 83.0156 0.78125 85.2355 0.78125 87.9609C0.78125 90.6864 3.00112 92.9062 5.72656 92.9062H18.9141C21.0588 92.9062 22.8736 91.5234 23.5567 89.6094H26.1839L28.0352 91.4606C29.9624 93.3878 33.101 93.3878 35.0282 91.4606C35.5669 90.922 35.94 90.2845 36.1776 89.6094H43.9433C44.6264 91.5234 46.4412 92.9062 48.5859 92.9062H61.7734C64.4989 92.9062 66.7188 90.6864 66.7188 87.9609C66.7188 85.2355 64.4989 83.0156 61.7734 83.0156H60.125V27.4613L50.2344 17.1425V13.7812H53.5312V0.59375H13.9688ZM15.6172 2.24219H51.8828V12.1328H15.6172V2.24219ZM18.9141 13.7812H48.5859V17.0781H18.9141V13.7812ZM18.0287 18.7266H49.4713L58.4766 28.1246V36.8594H9.02344V28.1246L18.0287 18.7266ZM9.02344 38.5078H18.9141V68.1797H9.02344V38.5078ZM20.5625 38.5078H46.9375V68.1797H20.5625V38.5078ZM48.5859 38.5078H58.4766V68.1797H48.5859V38.5078ZM9.02344 69.8281H58.4766V83.0156H48.5859C45.8605 83.0156 43.6406 85.2355 43.6406 87.9609C43.6406 88.2597 43.6765 88.5491 43.7276 88.8335C43.6718 88.5504 43.6406 88.2605 43.6406 87.9609H36.4738C36.473 86.6954 35.991 85.4304 35.0282 84.4677L31.5317 80.9712L30.3662 79.8057L25.7042 75.1437C23.777 73.2165 20.6384 73.2165 18.7112 75.1437C16.784 77.0709 16.784 80.2095 18.7112 82.1367L19.6642 83.0897C19.4178 83.0517 19.1709 83.0156 18.9141 83.0156H9.02344V69.8281ZM22.2077 75.3304C23.0479 75.3304 23.8879 75.6584 24.5387 76.3092L29.2007 80.9712L24.5387 85.6332L19.8767 80.9712C18.5751 79.6696 18.5751 77.6108 19.8767 76.3092C20.5275 75.6584 21.3675 75.3304 22.2077 75.3304ZM30.3662 82.1367L33.8627 85.6332C35.1643 86.9348 35.1643 88.9936 33.8627 90.2952C32.5611 91.5967 30.5023 91.5967 29.2007 90.2952L25.7042 86.7987L30.3662 82.1367ZM5.72656 84.6641H10.6719V91.2578H5.72656C3.88584 91.2578 2.42969 89.8017 2.42969 87.9609C2.42969 86.1202 3.88584 84.6641 5.72656 84.6641ZM12.3203 84.6641H18.9141C20.7548 84.6641 22.2109 86.1202 22.2109 87.9609C22.2109 89.8017 20.7548 91.2578 18.9141 91.2578H12.3203V84.6641ZM48.5859 84.6641H55.1797V91.2578H48.5859C46.7452 91.2578 45.2891 89.8017 45.2891 87.9609C45.2891 86.1202 46.7452 84.6641 48.5859 84.6641ZM56.8281 84.6641H61.7734C63.6142 84.6641 65.0703 86.1202 65.0703 87.9609C65.0703 89.8017 63.6142 91.2578 61.7734 91.2578H56.8281V84.6641ZM23.7853 87.2108L24.5355 87.9609H23.8594C23.8594 88.2605 23.8282 88.5504 23.7724 88.8335C23.8235 88.5491 23.8594 88.2597 23.8594 87.9609C23.8594 87.7041 23.8233 87.4572 23.7853 87.2108ZM36.4641 88.0801C36.4576 88.323 36.4378 88.5651 36.3933 88.8045C36.4342 88.5649 36.4585 88.3224 36.4641 88.0801Z" fill="white"/>
<path d="M30.4531 45.1016V50.0469H25.5078V56.6406H30.4531V61.5859H37.0469V56.6406H41.9922V50.0469H37.0469V45.1016H30.4531ZM32.1016 46.75H35.3984V51.6953H40.3438V54.9922H35.3984V59.9375H32.1016V54.9922H27.1562V51.6953H32.1016V46.75Z" fill="white"/>
</svg>
