<svg width="93" height="77" viewBox="0 0 93 77" fill="none" xmlns="http://www.w3.org/2000/svg">
<path d="M26.9688 0.835938V17.3203H5.53906V75.0156H0.59375V76.6641H92.9062V75.0156H87.9609V17.3203H66.5312V0.835938H26.9688ZM28.6172 2.48438H64.8828V75.0156H53.3438V61.8281H40.1562V75.0156H28.6172V2.48438ZM7.1875 18.9688H26.9688V75.0156H7.1875V18.9688ZM66.5312 18.9688H86.3125V75.0156H66.5312V18.9688ZM41.8047 63.4766H45.9258V75.0156H41.8047V63.4766ZM47.5742 63.4766H51.6953V75.0156H47.5742V63.4766Z" fill="white"/>
<path d="M43.4531 5.78125V10.7266H38.5078V17.3203H43.4531V22.2656H50.0469V17.3203H54.9922V10.7266H50.0469V5.78125H43.4531ZM45.1016 7.42969H48.3984V12.375H53.3438V15.6719H48.3984V20.6172H45.1016V15.6719H40.1562V12.375H45.1016V7.42969Z" fill="white"/>
<path d="M36.8594 33.8047H43.4531V35.4531H36.8594V33.8047Z" fill="white"/>
<path d="M50.0469 33.8047H56.6406V35.4531H50.0469V33.8047Z" fill="white"/>
<path d="M13.7812 37.1016H20.375V38.75H13.7812V37.1016Z" fill="white"/>
<path d="M36.8594 40.3984H43.4531V42.0469H36.8594V40.3984Z" fill="white"/>
<path d="M50.0469 40.3984H56.6406V42.0469H50.0469V40.3984Z" fill="white"/>
<path d="M13.7812 43.6953H20.375V45.3438H13.7812V43.6953Z" fill="white"/>
<path d="M36.8594 46.9922H43.4531V48.6406H36.8594V46.9922Z" fill="white"/>
<path d="M50.0469 46.9922H56.6406V48.6406H50.0469V46.9922Z" fill="white"/>
<path d="M13.7812 50.2891H20.375V51.9375H13.7812V50.2891Z" fill="white"/>
<path d="M36.8594 53.5859H43.4531V55.2344H36.8594V53.5859Z" fill="white"/>
<path d="M50.0469 53.5859H56.6406V55.2344H50.0469V53.5859Z" fill="white"/>
<path d="M13.7812 56.8828H20.375V58.5312H13.7812V56.8828Z" fill="white"/>
<path d="M73.125 37.1016H79.7188V38.75H73.125V37.1016Z" fill="white"/>
<path d="M73.125 43.6953H79.7188V45.3438H73.125V43.6953Z" fill="white"/>
<path d="M73.125 50.2891H79.7188V51.9375H73.125V50.2891Z" fill="white"/>
<path d="M73.125 56.8828H79.7188V58.5312H73.125V56.8828Z" fill="white"/>
<path d="M36.8594 27.2109H43.4531V28.8594H36.8594V27.2109Z" fill="white"/>
<path d="M13.7812 30.5078H20.375V32.1562H13.7812V30.5078Z" fill="white"/>
<path d="M73.125 30.5078H79.7188V32.1562H73.125V30.5078Z" fill="white"/>
<path d="M50.0469 27.2109H56.6406V28.8594H50.0469V27.2109Z" fill="white"/>
</svg>
