<svg width="80" height="93" viewBox="0 0 80 93" fill="none" xmlns="http://www.w3.org/2000/svg">
<path d="M65.225 7.57031L63.4766 9.31874L64.6422 10.4844L66.3906 8.73593L65.225 7.57031ZM64.6422 10.4844L63.4766 11.65L65.225 13.3984L66.3906 12.2328L64.6422 10.4844ZM63.4766 11.65L62.3109 10.4844L60.5625 12.2328L61.7281 13.3984L63.4766 11.65ZM62.3109 10.4844L63.4766 9.31874L61.7281 7.57031L60.5625 8.73593L62.3109 10.4844Z" fill="white"/>
<path d="M19.0687 7.57031L17.3203 9.31874L18.4859 10.4844L20.2344 8.73593L19.0687 7.57031ZM18.4859 10.4844L17.3203 11.65L19.0687 13.3984L20.2344 12.2328L18.4859 10.4844ZM17.3203 11.65L16.1547 10.4844L14.4062 12.2328L15.5719 13.3984L17.3203 11.65ZM16.1547 10.4844L17.3203 9.31874L15.5719 7.57031L14.4062 8.73593L16.1547 10.4844Z" fill="white"/>
<path d="M79.9609 22.8477H77.4883V24.4961H79.9609V22.8477ZM77.4883 24.4961H75.8398V26.9688H77.4883V24.4961ZM75.8398 24.4961V22.8477H73.3672V24.4961H75.8398ZM75.8398 22.8477H77.4883V20.375H75.8398V22.8477Z" fill="white"/>
<path d="M7.42969 22.8477H4.95703V24.4961H7.42969V22.8477ZM4.95703 24.4961H3.30859V26.9688H4.95703V24.4961ZM3.30859 24.4961V22.8477H0.835938V24.4961H3.30859ZM3.30859 22.8477H4.95703V20.375H3.30859V22.8477Z" fill="white"/>
<path d="M43.6953 3.06641H41.2227V4.71484H43.6953V3.06641ZM41.2227 4.71484H39.5742V7.1875H41.2227V4.71484ZM39.5742 4.71484V3.06641H37.1016V4.71484H39.5742ZM39.5742 3.06641H41.2227V0.59375H39.5742V3.06641Z" fill="white"/>
<path d="M39.8897 13.7813C23.2319 13.7822 9.71153 27.3031 9.71239 43.9586V43.9618C9.71866 45.4038 9.85121 46.8404 10.0633 48.2664L0.835938 64.2453L11.7697 67.172L16.0969 83.3279H30.5078V92.9062L63.4766 84.2841V62.7096C67.7218 57.3788 70.0635 50.7794 70.0703 43.9586C70.0712 27.3018 56.5489 13.7803 39.8897 13.7813ZM39.8897 15.4297C47.7879 15.4293 54.9317 18.6326 60.096 23.8103L32.5297 16.4213C34.8812 15.7949 37.3399 15.4298 39.8897 15.4297ZM29.645 17.355L62.0921 26.0479C63.3503 27.6057 64.4323 29.3059 65.3439 31.1092L55.6433 28.5109L55.2151 30.1014L66.2583 33.0602C66.7812 34.3248 67.1914 35.6426 67.53 36.9914L31.9534 31.4665L31.6991 33.0957L67.9196 38.7203C68.235 40.4202 68.422 42.1668 68.4219 43.9586C68.4216 44.2744 68.3908 44.5872 68.38 44.9019L12.1689 37.3166C12.7454 34.9004 13.604 32.5954 14.7511 30.462L28.4408 32.587L28.6952 30.9611L15.6654 28.9359C17.485 26.0068 19.811 23.4375 22.5361 21.3441L52.0341 29.2482L52.4591 27.6577L24.265 20.1013C25.9417 19.0018 27.7471 18.0858 29.645 17.355ZM11.8277 38.936L68.2963 46.5536C67.7769 52.1746 65.6017 57.5359 62.0116 61.9433L61.8281 62.1719V83.0124L32.1562 90.7717V81.6795H17.3622L13.1155 65.8262L3.33757 63.2054L11.7633 48.6174L11.715 48.3276C11.4839 46.8808 11.3672 45.4205 11.3608 43.9554C11.3609 42.2392 11.5376 40.5684 11.8277 38.936Z" fill="white"/>
</svg>
